<?xml version="1.0" encoding="UTF-8" standalone="no"?>
<!DOCTYPE svg PUBLIC "-//W3C//DTD SVG 1.1//EN"
 "http://www.w3.org/Graphics/SVG/1.1/DTD/svg11.dtd">
<!-- Generated by graphviz version 2.42.3 (20191010.1750)
 -->
<!-- Title: g Pages: 1 -->
<svg width="604pt" height="165pt"
 viewBox="0.00 0.00 604.00 165.00" xmlns="http://www.w3.org/2000/svg" xmlns:xlink="http://www.w3.org/1999/xlink">
<g id="graph0" class="graph" transform="scale(1 1) rotate(0) translate(4 161)">
<title>g</title>
<polygon fill="white" stroke="transparent" points="-4,4 -4,-161 600,-161 600,4 -4,4"/>
<!-- dataset (version_1) -->
<g id="node1" class="node">
<title>dataset (version_1)</title>
<polygon fill="none" stroke="black" points="0,-26.5 0,-156.5 202,-156.5 202,-26.5 0,-26.5"/>
<text text-anchor="middle" x="101" y="-139.7" font-family="Times,serif" font-size="16.00">my_dataset (version_1)</text>
<polyline fill="none" stroke="black" points="0,-130.5 202,-130.5 "/>
<text text-anchor="middle" x="101" y="-113.7" font-family="Times,serif" font-size="16.00">CHUNK 0</text>
<polyline fill="none" stroke="black" points="0,-104.5 202,-104.5 "/>
<text text-anchor="middle" x="101" y="-87.7" font-family="Times,serif" font-size="16.00">CHUNK 1</text>
<polyline fill="none" stroke="black" points="0,-78.5 202,-78.5 "/>
<text text-anchor="middle" x="101" y="-61.7" font-family="Times,serif" font-size="16.00">...</text>
<polyline fill="none" stroke="black" points="0,-52.5 202,-52.5 "/>
<text text-anchor="middle" x="101" y="-35.7" font-family="Times,serif" font-size="16.00">CHUNK n</text>
</g>
<!-- raw_data -->
<g id="node3" class="node">
<title>raw_data</title>
<polygon fill="none" stroke="black" points="238,-0.5 238,-156.5 358,-156.5 358,-0.5 238,-0.5"/>
<text text-anchor="middle" x="298" y="-139.7" font-family="Times,serif" font-size="16.00">raw_data</text>
<polyline fill="none" stroke="black" points="238,-130.5 358,-130.5 "/>
<text text-anchor="middle" x="298" y="-113.7" font-family="Times,serif" font-size="16.00">CHUNK 0</text>
<polyline fill="none" stroke="black" points="238,-104.5 358,-104.5 "/>
<text text-anchor="middle" x="298" y="-87.7" font-family="Times,serif" font-size="16.00">CHUNK 1</text>
<polyline fill="none" stroke="black" points="238,-78.5 358,-78.5 "/>
<text text-anchor="middle" x="298" y="-61.7" font-family="Times,serif" font-size="16.00">...</text>
<polyline fill="none" stroke="black" points="238,-52.5 358,-52.5 "/>
<text text-anchor="middle" x="298" y="-35.7" font-family="Times,serif" font-size="16.00">CHUNK n</text>
<polyline fill="none" stroke="black" points="238,-26.5 358,-26.5 "/>
<text text-anchor="middle" x="298" y="-9.7" font-family="Times,serif" font-size="16.00">CHUNK n+1</text>
</g>
<!-- dataset (version_1)&#45;&gt;raw_data -->
<g id="edge1" class="edge">
<title>dataset (version_1):f0&#45;&gt;raw_data:f0</title>
<path fill="none" stroke="black" d="M202,-117.5C214,-117.5 219.25,-117.5 227.88,-117.5"/>
<polygon fill="black" stroke="black" points="228,-121 238,-117.5 228,-114 228,-121"/>
</g>
<!-- dataset (version_1)&#45;&gt;raw_data -->
<g id="edge2" class="edge">
<title>dataset (version_1):f1&#45;&gt;raw_data:f1</title>
<path fill="none" stroke="black" d="M202,-91.5C214,-91.5 219.25,-91.5 227.88,-91.5"/>
<polygon fill="black" stroke="black" points="228,-95 238,-91.5 228,-88 228,-95"/>
</g>
<!-- dataset (version_1)&#45;&gt;raw_data -->
<g id="edge3" class="edge">
<title>dataset (version_1):fdot&#45;&gt;raw_data:fdot</title>
<path fill="none" stroke="black" d="M202,-65.5C214,-65.5 219.25,-65.5 227.88,-65.5"/>
<polygon fill="black" stroke="black" points="228,-69 238,-65.5 228,-62 228,-69"/>
</g>
<!-- dataset (version_1)&#45;&gt;raw_data -->
<g id="edge4" class="edge">
<title>dataset (version_1):fn&#45;&gt;raw_data:fn</title>
<path fill="none" stroke="black" d="M202,-39.5C214,-39.5 219.25,-39.5 227.88,-39.5"/>
<polygon fill="black" stroke="black" points="228,-43 238,-39.5 228,-36 228,-43"/>
</g>
<!-- dataset (version_2) -->
<g id="node2" class="node">
<title>dataset (version_2)</title>
<polygon fill="none" stroke="black" points="394,-26.5 394,-156.5 596,-156.5 596,-26.5 394,-26.5"/>
<text text-anchor="middle" x="495" y="-139.7" font-family="Times,serif" font-size="16.00">my_dataset (version_2)</text>
<polyline fill="none" stroke="black" points="394,-130.5 596,-130.5 "/>
<text text-anchor="middle" x="495" y="-113.7" font-family="Times,serif" font-size="16.00">CHUNK 0</text>
<polyline fill="none" stroke="black" points="394,-104.5 596,-104.5 "/>
<text text-anchor="middle" x="495" y="-87.7" font-family="Times,serif" font-size="16.00">CHUNK 1</text>
<polyline fill="none" stroke="black" points="394,-78.5 596,-78.5 "/>
<text text-anchor="middle" x="495" y="-61.7" font-family="Times,serif" font-size="16.00">...</text>
<polyline fill="none" stroke="black" points="394,-52.5 596,-52.5 "/>
<text text-anchor="middle" x="495" y="-35.7" font-family="Times,serif" font-size="16.00">CHUNK n</text>
</g>
<!-- dataset (version_2)&#45;&gt;raw_data -->
<g id="edge6" class="edge">
<title>dataset (version_2):fdot&#45;&gt;raw_data:fdot</title>
<path fill="none" stroke="black" d="M394,-65.5C382,-65.5 376.75,-65.5 368.12,-65.5"/>
<polygon fill="black" stroke="black" points="368,-62 358,-65.5 368,-69 368,-62"/>
</g>
<!-- dataset (version_2)&#45;&gt;raw_data -->
<g id="edge7" class="edge">
<title>dataset (version_2):f1&#45;&gt;raw_data:fn1</title>
<path fill="none" stroke="black" d="M394,-91.5C360,-91.5 388.29,-29.63 367.91,-16.1"/>
<polygon fill="black" stroke="black" points="368.56,-12.65 358,-13.5 366.79,-19.42 368.56,-12.65"/>
</g>
<!-- dataset (version_2)&#45;&gt;raw_data -->
<g id="edge8" class="edge">
<title>dataset (version_2):fn&#45;&gt;raw_data:fn</title>
<path fill="none" stroke="black" d="M394,-39.5C382,-39.5 376.75,-39.5 368.12,-39.5"/>
<polygon fill="black" stroke="black" points="368,-36 358,-39.5 368,-43 368,-36"/>
</g>
<!-- raw_data&#45;&gt;dataset (version_2) -->
<g id="edge5" class="edge">
<title>raw_data:f0&#45;&gt;dataset (version_2):f0</title>
<path fill="none" stroke="black" d="M368.12,-117.5C376.75,-117.5 382,-117.5 394,-117.5"/>
<polygon fill="black" stroke="black" points="368,-114 358,-117.5 368,-121 368,-114"/>
</g>
</g>
</svg>
