<?xml version="1.0" encoding="UTF-8" standalone="no"?>
<!DOCTYPE svg PUBLIC "-//W3C//DTD SVG 1.1//EN"
 "http://www.w3.org/Graphics/SVG/1.1/DTD/svg11.dtd">
<!-- Generated by graphviz version 2.42.3 (20191010.1750)
 -->
<!-- Title: g Pages: 1 -->
<svg width="284pt" height="139pt"
 viewBox="0.00 0.00 284.00 139.00" xmlns="http://www.w3.org/2000/svg" xmlns:xlink="http://www.w3.org/1999/xlink">
<g id="graph0" class="graph" transform="scale(1 1) rotate(0) translate(4 135)">
<title>g</title>
<polygon fill="white" stroke="transparent" points="-4,4 -4,-135 280,-135 280,4 -4,4"/>
<!-- dataset (version 1) -->
<g id="node1" class="node">
<title>dataset (version 1)</title>
<polygon fill="none" stroke="black" points="0,-0.5 0,-130.5 143,-130.5 143,-0.5 0,-0.5"/>
<text text-anchor="middle" x="71.5" y="-113.7" font-family="Times,serif" font-size="16.00">data (version 1)</text>
<polyline fill="none" stroke="black" points="0,-104.5 143,-104.5 "/>
<text text-anchor="middle" x="71.5" y="-87.7" font-family="Times,serif" font-size="16.00">CHUNK 0</text>
<polyline fill="none" stroke="black" points="0,-78.5 143,-78.5 "/>
<text text-anchor="middle" x="71.5" y="-61.7" font-family="Times,serif" font-size="16.00">CHUNK 1</text>
<polyline fill="none" stroke="black" points="0,-52.5 143,-52.5 "/>
<text text-anchor="middle" x="71.5" y="-35.7" font-family="Times,serif" font-size="16.00">...</text>
<polyline fill="none" stroke="black" points="0,-26.5 143,-26.5 "/>
<text text-anchor="middle" x="71.5" y="-9.7" font-family="Times,serif" font-size="16.00">CHUNK n</text>
</g>
<!-- raw_data -->
<g id="node2" class="node">
<title>raw_data</title>
<polygon fill="none" stroke="black" points="179,-0.5 179,-130.5 276,-130.5 276,-0.5 179,-0.5"/>
<text text-anchor="middle" x="227.5" y="-113.7" font-family="Times,serif" font-size="16.00">raw_data</text>
<polyline fill="none" stroke="black" points="179,-104.5 276,-104.5 "/>
<text text-anchor="middle" x="227.5" y="-87.7" font-family="Times,serif" font-size="16.00">CHUNK 0</text>
<polyline fill="none" stroke="black" points="179,-78.5 276,-78.5 "/>
<text text-anchor="middle" x="227.5" y="-61.7" font-family="Times,serif" font-size="16.00">CHUNK 1</text>
<polyline fill="none" stroke="black" points="179,-52.5 276,-52.5 "/>
<text text-anchor="middle" x="227.5" y="-35.7" font-family="Times,serif" font-size="16.00">...</text>
<polyline fill="none" stroke="black" points="179,-26.5 276,-26.5 "/>
<text text-anchor="middle" x="227.5" y="-9.7" font-family="Times,serif" font-size="16.00">CHUNK n</text>
</g>
<!-- dataset (version 1)&#45;&gt;raw_data -->
<g id="edge1" class="edge">
<title>dataset (version 1):f0&#45;&gt;raw_data:f0</title>
<path fill="none" stroke="black" d="M143,-91.5C155,-91.5 160.25,-91.5 168.88,-91.5"/>
<polygon fill="black" stroke="black" points="169,-95 179,-91.5 169,-88 169,-95"/>
</g>
<!-- dataset (version 1)&#45;&gt;raw_data -->
<g id="edge2" class="edge">
<title>dataset (version 1):f1&#45;&gt;raw_data:f1</title>
<path fill="none" stroke="black" d="M143,-65.5C155,-65.5 160.25,-65.5 168.88,-65.5"/>
<polygon fill="black" stroke="black" points="169,-69 179,-65.5 169,-62 169,-69"/>
</g>
<!-- dataset (version 1)&#45;&gt;raw_data -->
<g id="edge3" class="edge">
<title>dataset (version 1):fdot&#45;&gt;raw_data:fdot</title>
<path fill="none" stroke="black" d="M143,-39.5C155,-39.5 160.25,-39.5 168.88,-39.5"/>
<polygon fill="black" stroke="black" points="169,-43 179,-39.5 169,-36 169,-43"/>
</g>
<!-- dataset (version 1)&#45;&gt;raw_data -->
<g id="edge4" class="edge">
<title>dataset (version 1):fn&#45;&gt;raw_data:fn</title>
<path fill="none" stroke="black" d="M143,-13.5C155,-13.5 160.25,-13.5 168.88,-13.5"/>
<polygon fill="black" stroke="black" points="169,-17 179,-13.5 169,-10 169,-17"/>
</g>
</g>
</svg>
