<?xml version="1.0" encoding="UTF-8" standalone="no"?>
<!DOCTYPE svg PUBLIC "-//W3C//DTD SVG 1.1//EN"
 "http://www.w3.org/Graphics/SVG/1.1/DTD/svg11.dtd">
<!-- Generated by graphviz version 2.42.3 (20191010.1750)
 -->
<!-- Title: g Pages: 1 -->
<svg width="486pt" height="165pt"
 viewBox="0.00 0.00 486.00 165.00" xmlns="http://www.w3.org/2000/svg" xmlns:xlink="http://www.w3.org/1999/xlink">
<g id="graph0" class="graph" transform="scale(1 1) rotate(0) translate(4 161)">
<title>g</title>
<polygon fill="white" stroke="transparent" points="-4,4 -4,-161 482,-161 482,4 -4,4"/>
<!-- dataset (version 1) -->
<g id="node1" class="node">
<title>dataset (version 1)</title>
<polygon fill="none" stroke="black" points="0,-26.5 0,-156.5 143,-156.5 143,-26.5 0,-26.5"/>
<text text-anchor="middle" x="71.5" y="-139.7" font-family="Times,serif" font-size="16.00">data (version 1)</text>
<polyline fill="none" stroke="black" points="0,-130.5 143,-130.5 "/>
<text text-anchor="middle" x="71.5" y="-113.7" font-family="Times,serif" font-size="16.00">CHUNK 0</text>
<polyline fill="none" stroke="black" points="0,-104.5 143,-104.5 "/>
<text text-anchor="middle" x="71.5" y="-87.7" font-family="Times,serif" font-size="16.00">CHUNK 1</text>
<polyline fill="none" stroke="black" points="0,-78.5 143,-78.5 "/>
<text text-anchor="middle" x="71.5" y="-61.7" font-family="Times,serif" font-size="16.00">...</text>
<polyline fill="none" stroke="black" points="0,-52.5 143,-52.5 "/>
<text text-anchor="middle" x="71.5" y="-35.7" font-family="Times,serif" font-size="16.00">CHUNK n</text>
</g>
<!-- raw_data -->
<g id="node3" class="node">
<title>raw_data</title>
<polygon fill="none" stroke="black" points="179,-0.5 179,-156.5 299,-156.5 299,-0.5 179,-0.5"/>
<text text-anchor="middle" x="239" y="-139.7" font-family="Times,serif" font-size="16.00">raw_data</text>
<polyline fill="none" stroke="black" points="179,-130.5 299,-130.5 "/>
<text text-anchor="middle" x="239" y="-113.7" font-family="Times,serif" font-size="16.00">CHUNK 0</text>
<polyline fill="none" stroke="black" points="179,-104.5 299,-104.5 "/>
<text text-anchor="middle" x="239" y="-87.7" font-family="Times,serif" font-size="16.00">CHUNK 1</text>
<polyline fill="none" stroke="black" points="179,-78.5 299,-78.5 "/>
<text text-anchor="middle" x="239" y="-61.7" font-family="Times,serif" font-size="16.00">...</text>
<polyline fill="none" stroke="black" points="179,-52.5 299,-52.5 "/>
<text text-anchor="middle" x="239" y="-35.7" font-family="Times,serif" font-size="16.00">CHUNK n</text>
<polyline fill="none" stroke="black" points="179,-26.5 299,-26.5 "/>
<text text-anchor="middle" x="239" y="-9.7" font-family="Times,serif" font-size="16.00">CHUNK n+1</text>
</g>
<!-- dataset (version 1)&#45;&gt;raw_data -->
<g id="edge1" class="edge">
<title>dataset (version 1):f0&#45;&gt;raw_data:f0</title>
<path fill="none" stroke="black" d="M143,-117.5C155,-117.5 160.25,-117.5 168.88,-117.5"/>
<polygon fill="black" stroke="black" points="169,-121 179,-117.5 169,-114 169,-121"/>
</g>
<!-- dataset (version 1)&#45;&gt;raw_data -->
<g id="edge2" class="edge">
<title>dataset (version 1):f1&#45;&gt;raw_data:f1</title>
<path fill="none" stroke="black" d="M143,-91.5C155,-91.5 160.25,-91.5 168.88,-91.5"/>
<polygon fill="black" stroke="black" points="169,-95 179,-91.5 169,-88 169,-95"/>
</g>
<!-- dataset (version 1)&#45;&gt;raw_data -->
<g id="edge3" class="edge">
<title>dataset (version 1):fdot&#45;&gt;raw_data:fdot</title>
<path fill="none" stroke="black" d="M143,-65.5C155,-65.5 160.25,-65.5 168.88,-65.5"/>
<polygon fill="black" stroke="black" points="169,-69 179,-65.5 169,-62 169,-69"/>
</g>
<!-- dataset (version 1)&#45;&gt;raw_data -->
<g id="edge4" class="edge">
<title>dataset (version 1):fn&#45;&gt;raw_data:fn</title>
<path fill="none" stroke="black" d="M143,-39.5C155,-39.5 160.25,-39.5 168.88,-39.5"/>
<polygon fill="black" stroke="black" points="169,-43 179,-39.5 169,-36 169,-43"/>
</g>
<!-- dataset (version 2) -->
<g id="node2" class="node">
<title>dataset (version 2)</title>
<polygon fill="none" stroke="black" points="335,-26.5 335,-156.5 478,-156.5 478,-26.5 335,-26.5"/>
<text text-anchor="middle" x="406.5" y="-139.7" font-family="Times,serif" font-size="16.00">data (version 2)</text>
<polyline fill="none" stroke="black" points="335,-130.5 478,-130.5 "/>
<text text-anchor="middle" x="406.5" y="-113.7" font-family="Times,serif" font-size="16.00">CHUNK 0</text>
<polyline fill="none" stroke="black" points="335,-104.5 478,-104.5 "/>
<text text-anchor="middle" x="406.5" y="-87.7" font-family="Times,serif" font-size="16.00">CHUNK 1</text>
<polyline fill="none" stroke="black" points="335,-78.5 478,-78.5 "/>
<text text-anchor="middle" x="406.5" y="-61.7" font-family="Times,serif" font-size="16.00">...</text>
<polyline fill="none" stroke="black" points="335,-52.5 478,-52.5 "/>
<text text-anchor="middle" x="406.5" y="-35.7" font-family="Times,serif" font-size="16.00">CHUNK n</text>
</g>
<!-- dataset (version 2)&#45;&gt;raw_data -->
<g id="edge6" class="edge">
<title>dataset (version 2):fdot&#45;&gt;raw_data:fdot</title>
<path fill="none" stroke="black" d="M335,-65.5C323,-65.5 317.75,-65.5 309.12,-65.5"/>
<polygon fill="black" stroke="black" points="309,-62 299,-65.5 309,-69 309,-62"/>
</g>
<!-- dataset (version 2)&#45;&gt;raw_data -->
<g id="edge7" class="edge">
<title>dataset (version 2):f1&#45;&gt;raw_data:fn1</title>
<path fill="none" stroke="black" d="M335,-91.5C301,-91.5 329.29,-29.63 308.91,-16.1"/>
<polygon fill="black" stroke="black" points="309.56,-12.65 299,-13.5 307.79,-19.42 309.56,-12.65"/>
</g>
<!-- dataset (version 2)&#45;&gt;raw_data -->
<g id="edge8" class="edge">
<title>dataset (version 2):fn&#45;&gt;raw_data:fn</title>
<path fill="none" stroke="black" d="M335,-39.5C323,-39.5 317.75,-39.5 309.12,-39.5"/>
<polygon fill="black" stroke="black" points="309,-36 299,-39.5 309,-43 309,-36"/>
</g>
<!-- raw_data&#45;&gt;dataset (version 2) -->
<g id="edge5" class="edge">
<title>raw_data:f0&#45;&gt;dataset (version 2):f0</title>
<path fill="none" stroke="black" d="M309.12,-117.5C317.75,-117.5 323,-117.5 335,-117.5"/>
<polygon fill="black" stroke="black" points="309,-114 299,-117.5 309,-121 309,-114"/>
</g>
</g>
</svg>
