<?xml version="1.0" encoding="UTF-8" standalone="no"?>
<!DOCTYPE svg PUBLIC "-//W3C//DTD SVG 1.1//EN"
 "http://www.w3.org/Graphics/SVG/1.1/DTD/svg11.dtd">
<!-- Generated by graphviz version 2.42.3 (20191010.1750)
 -->
<!-- Title: g Pages: 1 -->
<svg width="515pt" height="153pt"
 viewBox="0.00 0.00 515.16 153.00" xmlns="http://www.w3.org/2000/svg" xmlns:xlink="http://www.w3.org/1999/xlink">
<g id="graph0" class="graph" transform="scale(1 1) rotate(0) translate(4 149)">
<title>g</title>
<polygon fill="white" stroke="transparent" points="-4,4 -4,-149 511.16,-149 511.16,4 -4,4"/>
<!-- dataset (version_1) -->
<g id="node1" class="node">
<title>dataset (version_1)</title>
<polygon fill="none" stroke="black" points="0,-24.5 0,-144.5 166.62,-144.5 166.62,-24.5 0,-24.5"/>
<text text-anchor="middle" x="83.31" y="-127.7" font-family="Times,serif" font-size="16.00">my_dataset (version_1)</text>
<polyline fill="none" stroke="black" points="0,-120.5 166.62,-120.5 "/>
<text text-anchor="middle" x="83.31" y="-103.7" font-family="Times,serif" font-size="16.00">CHUNK 0</text>
<polyline fill="none" stroke="black" points="0,-96.5 166.62,-96.5 "/>
<text text-anchor="middle" x="83.31" y="-79.7" font-family="Times,serif" font-size="16.00">CHUNK 1</text>
<polyline fill="none" stroke="black" points="0,-72.5 166.62,-72.5 "/>
<text text-anchor="middle" x="83.31" y="-55.7" font-family="Times,serif" font-size="16.00">...</text>
<polyline fill="none" stroke="black" points="0,-48.5 166.62,-48.5 "/>
<text text-anchor="middle" x="83.31" y="-31.7" font-family="Times,serif" font-size="16.00">CHUNK n</text>
</g>
<!-- raw_data -->
<g id="node3" class="node">
<title>raw_data</title>
<polygon fill="none" stroke="black" points="202.62,-0.5 202.62,-144.5 304.54,-144.5 304.54,-0.5 202.62,-0.5"/>
<text text-anchor="middle" x="253.58" y="-127.7" font-family="Times,serif" font-size="16.00">raw_data</text>
<polyline fill="none" stroke="black" points="202.62,-120.5 304.54,-120.5 "/>
<text text-anchor="middle" x="253.58" y="-103.7" font-family="Times,serif" font-size="16.00">CHUNK 0</text>
<polyline fill="none" stroke="black" points="202.62,-96.5 304.54,-96.5 "/>
<text text-anchor="middle" x="253.58" y="-79.7" font-family="Times,serif" font-size="16.00">CHUNK 1</text>
<polyline fill="none" stroke="black" points="202.62,-72.5 304.54,-72.5 "/>
<text text-anchor="middle" x="253.58" y="-55.7" font-family="Times,serif" font-size="16.00">...</text>
<polyline fill="none" stroke="black" points="202.62,-48.5 304.54,-48.5 "/>
<text text-anchor="middle" x="253.58" y="-31.7" font-family="Times,serif" font-size="16.00">CHUNK n</text>
<polyline fill="none" stroke="black" points="202.62,-24.5 304.54,-24.5 "/>
<text text-anchor="middle" x="253.58" y="-7.7" font-family="Times,serif" font-size="16.00">CHUNK n+1</text>
</g>
<!-- dataset (version_1)&#45;&gt;raw_data -->
<g id="edge1" class="edge">
<title>dataset (version_1):f0&#45;&gt;raw_data:f0</title>
<path fill="none" stroke="black" d="M166.62,-108.5C178.62,-108.5 183.88,-108.5 192.5,-108.5"/>
<polygon fill="black" stroke="black" points="192.63,-112 202.62,-108.5 192.62,-105 192.63,-112"/>
</g>
<!-- dataset (version_1)&#45;&gt;raw_data -->
<g id="edge2" class="edge">
<title>dataset (version_1):f1&#45;&gt;raw_data:f1</title>
<path fill="none" stroke="black" d="M166.62,-84.5C178.62,-84.5 183.88,-84.5 192.5,-84.5"/>
<polygon fill="black" stroke="black" points="192.63,-88 202.62,-84.5 192.62,-81 192.63,-88"/>
</g>
<!-- dataset (version_1)&#45;&gt;raw_data -->
<g id="edge3" class="edge">
<title>dataset (version_1):fdot&#45;&gt;raw_data:fdot</title>
<path fill="none" stroke="black" d="M166.62,-60.5C178.62,-60.5 183.88,-60.5 192.5,-60.5"/>
<polygon fill="black" stroke="black" points="192.63,-64 202.62,-60.5 192.62,-57 192.63,-64"/>
</g>
<!-- dataset (version_1)&#45;&gt;raw_data -->
<g id="edge4" class="edge">
<title>dataset (version_1):fn&#45;&gt;raw_data:fn</title>
<path fill="none" stroke="black" d="M166.62,-36.5C178.62,-36.5 183.88,-36.5 192.5,-36.5"/>
<polygon fill="black" stroke="black" points="192.63,-40 202.62,-36.5 192.62,-33 192.63,-40"/>
</g>
<!-- dataset (version_2) -->
<g id="node2" class="node">
<title>dataset (version_2)</title>
<polygon fill="none" stroke="black" points="340.54,-24.5 340.54,-144.5 507.16,-144.5 507.16,-24.5 340.54,-24.5"/>
<text text-anchor="middle" x="423.85" y="-127.7" font-family="Times,serif" font-size="16.00">my_dataset (version_2)</text>
<polyline fill="none" stroke="black" points="340.54,-120.5 507.16,-120.5 "/>
<text text-anchor="middle" x="423.85" y="-103.7" font-family="Times,serif" font-size="16.00">CHUNK 0</text>
<polyline fill="none" stroke="black" points="340.54,-96.5 507.16,-96.5 "/>
<text text-anchor="middle" x="423.85" y="-79.7" font-family="Times,serif" font-size="16.00">CHUNK 1</text>
<polyline fill="none" stroke="black" points="340.54,-72.5 507.16,-72.5 "/>
<text text-anchor="middle" x="423.85" y="-55.7" font-family="Times,serif" font-size="16.00">...</text>
<polyline fill="none" stroke="black" points="340.54,-48.5 507.16,-48.5 "/>
<text text-anchor="middle" x="423.85" y="-31.7" font-family="Times,serif" font-size="16.00">CHUNK n</text>
</g>
<!-- dataset (version_2)&#45;&gt;raw_data -->
<g id="edge6" class="edge">
<title>dataset (version_2):fdot&#45;&gt;raw_data:fdot</title>
<path fill="none" stroke="black" d="M340.54,-60.5C328.54,-60.5 323.29,-60.5 314.66,-60.5"/>
<polygon fill="black" stroke="black" points="314.54,-57 304.54,-60.5 314.54,-64 314.54,-57"/>
</g>
<!-- dataset (version_2)&#45;&gt;raw_data -->
<g id="edge7" class="edge">
<title>dataset (version_2):f1&#45;&gt;raw_data:fn1</title>
<path fill="none" stroke="black" d="M340.54,-84.5C308.95,-84.5 332.96,-28.39 314.41,-15.23"/>
<polygon fill="black" stroke="black" points="315.11,-11.8 304.54,-12.5 313.24,-18.54 315.11,-11.8"/>
</g>
<!-- dataset (version_2)&#45;&gt;raw_data -->
<g id="edge8" class="edge">
<title>dataset (version_2):fn&#45;&gt;raw_data:fn</title>
<path fill="none" stroke="black" d="M340.54,-36.5C328.54,-36.5 323.29,-36.5 314.66,-36.5"/>
<polygon fill="black" stroke="black" points="314.54,-33 304.54,-36.5 314.54,-40 314.54,-33"/>
</g>
<!-- raw_data&#45;&gt;dataset (version_2) -->
<g id="edge5" class="edge">
<title>raw_data:f0&#45;&gt;dataset (version_2):f0</title>
<path fill="none" stroke="black" d="M314.66,-108.5C323.29,-108.5 328.54,-108.5 340.54,-108.5"/>
<polygon fill="black" stroke="black" points="314.54,-105 304.54,-108.5 314.54,-112 314.54,-105"/>
</g>
</g>
</svg>
