<?xml version="1.0" encoding="UTF-8" standalone="no"?>
<!DOCTYPE svg PUBLIC "-//W3C//DTD SVG 1.1//EN"
 "http://www.w3.org/Graphics/SVG/1.1/DTD/svg11.dtd">
<!-- Generated by graphviz version 2.47.1 (20210511.0111)
 -->
<!-- Title: g Pages: 1 -->
<svg width="606pt" height="165pt"
 viewBox="0.00 0.00 606.00 165.00" xmlns="http://www.w3.org/2000/svg" xmlns:xlink="http://www.w3.org/1999/xlink">
<g id="graph0" class="graph" transform="scale(1 1) rotate(0) translate(4 161)">
<title>g</title>
<polygon fill="white" stroke="transparent" points="-4,4 -4,-161 602,-161 602,4 -4,4"/>
<!-- dataset (version_1) -->
<g id="node1" class="node">
<title>dataset (version_1)</title>
<polygon fill="none" stroke="black" points="0,-26.5 0,-156.5 206,-156.5 206,-26.5 0,-26.5"/>
<text text-anchor="middle" x="103" y="-139.7" font-family="Times-Roman" font-size="16.00">my_dataset (version_1)</text>
<polyline fill="none" stroke="black" points="0,-130.5 206,-130.5 "/>
<text text-anchor="middle" x="103" y="-113.7" font-family="Times-Roman" font-size="16.00">CHUNK 0</text>
<polyline fill="none" stroke="black" points="0,-104.5 206,-104.5 "/>
<text text-anchor="middle" x="103" y="-87.7" font-family="Times-Roman" font-size="16.00">CHUNK 1</text>
<polyline fill="none" stroke="black" points="0,-78.5 206,-78.5 "/>
<text text-anchor="middle" x="103" y="-61.7" font-family="Times-Roman" font-size="16.00">...</text>
<polyline fill="none" stroke="black" points="0,-52.5 206,-52.5 "/>
<text text-anchor="middle" x="103" y="-35.7" font-family="Times-Roman" font-size="16.00">CHUNK n</text>
</g>
<!-- raw_data -->
<g id="node3" class="node">
<title>raw_data</title>
<polygon fill="none" stroke="black" points="242,-0.5 242,-156.5 356,-156.5 356,-0.5 242,-0.5"/>
<text text-anchor="middle" x="299" y="-139.7" font-family="Times-Roman" font-size="16.00">raw_data</text>
<polyline fill="none" stroke="black" points="242,-130.5 356,-130.5 "/>
<text text-anchor="middle" x="299" y="-113.7" font-family="Times-Roman" font-size="16.00">CHUNK 0</text>
<polyline fill="none" stroke="black" points="242,-104.5 356,-104.5 "/>
<text text-anchor="middle" x="299" y="-87.7" font-family="Times-Roman" font-size="16.00">CHUNK 1</text>
<polyline fill="none" stroke="black" points="242,-78.5 356,-78.5 "/>
<text text-anchor="middle" x="299" y="-61.7" font-family="Times-Roman" font-size="16.00">...</text>
<polyline fill="none" stroke="black" points="242,-52.5 356,-52.5 "/>
<text text-anchor="middle" x="299" y="-35.7" font-family="Times-Roman" font-size="16.00">CHUNK n</text>
<polyline fill="none" stroke="black" points="242,-26.5 356,-26.5 "/>
<text text-anchor="middle" x="299" y="-9.7" font-family="Times-Roman" font-size="16.00">CHUNK n+1</text>
</g>
<!-- dataset (version_1)&#45;&gt;raw_data -->
<g id="edge1" class="edge">
<title>dataset (version_1):f0&#45;&gt;raw_data:f0</title>
<path fill="none" stroke="black" d="M206,-117.5C218,-117.5 223.25,-117.5 231.88,-117.5"/>
<polygon fill="black" stroke="black" points="232,-121 242,-117.5 232,-114 232,-121"/>
</g>
<!-- dataset (version_1)&#45;&gt;raw_data -->
<g id="edge2" class="edge">
<title>dataset (version_1):f1&#45;&gt;raw_data:f1</title>
<path fill="none" stroke="black" d="M206,-91.5C218,-91.5 223.25,-91.5 231.88,-91.5"/>
<polygon fill="black" stroke="black" points="232,-95 242,-91.5 232,-88 232,-95"/>
</g>
<!-- dataset (version_1)&#45;&gt;raw_data -->
<g id="edge3" class="edge">
<title>dataset (version_1):fdot&#45;&gt;raw_data:fdot</title>
<path fill="none" stroke="black" d="M206,-65.5C218,-65.5 223.25,-65.5 231.88,-65.5"/>
<polygon fill="black" stroke="black" points="232,-69 242,-65.5 232,-62 232,-69"/>
</g>
<!-- dataset (version_1)&#45;&gt;raw_data -->
<g id="edge4" class="edge">
<title>dataset (version_1):fn&#45;&gt;raw_data:fn</title>
<path fill="none" stroke="black" d="M206,-39.5C218,-39.5 223.25,-39.5 231.88,-39.5"/>
<polygon fill="black" stroke="black" points="232,-43 242,-39.5 232,-36 232,-43"/>
</g>
<!-- dataset (version_2) -->
<g id="node2" class="node">
<title>dataset (version_2)</title>
<polygon fill="none" stroke="black" points="392,-26.5 392,-156.5 598,-156.5 598,-26.5 392,-26.5"/>
<text text-anchor="middle" x="495" y="-139.7" font-family="Times-Roman" font-size="16.00">my_dataset (version_2)</text>
<polyline fill="none" stroke="black" points="392,-130.5 598,-130.5 "/>
<text text-anchor="middle" x="495" y="-113.7" font-family="Times-Roman" font-size="16.00">CHUNK 0</text>
<polyline fill="none" stroke="black" points="392,-104.5 598,-104.5 "/>
<text text-anchor="middle" x="495" y="-87.7" font-family="Times-Roman" font-size="16.00">CHUNK 1</text>
<polyline fill="none" stroke="black" points="392,-78.5 598,-78.5 "/>
<text text-anchor="middle" x="495" y="-61.7" font-family="Times-Roman" font-size="16.00">...</text>
<polyline fill="none" stroke="black" points="392,-52.5 598,-52.5 "/>
<text text-anchor="middle" x="495" y="-35.7" font-family="Times-Roman" font-size="16.00">CHUNK n</text>
</g>
<!-- dataset (version_2)&#45;&gt;raw_data -->
<g id="edge6" class="edge">
<title>dataset (version_2):fdot&#45;&gt;raw_data:fdot</title>
<path fill="none" stroke="black" d="M392,-65.5C380,-65.5 374.75,-65.5 366.12,-65.5"/>
<polygon fill="black" stroke="black" points="366,-62 356,-65.5 366,-69 366,-62"/>
</g>
<!-- dataset (version_2)&#45;&gt;raw_data -->
<g id="edge7" class="edge">
<title>dataset (version_2):f1&#45;&gt;raw_data:fn1</title>
<path fill="none" stroke="black" d="M392,-91.5C358,-91.5 386.29,-29.63 365.91,-16.1"/>
<polygon fill="black" stroke="black" points="366.56,-12.65 356,-13.5 364.79,-19.42 366.56,-12.65"/>
</g>
<!-- dataset (version_2)&#45;&gt;raw_data -->
<g id="edge8" class="edge">
<title>dataset (version_2):fn&#45;&gt;raw_data:fn</title>
<path fill="none" stroke="black" d="M392,-39.5C380,-39.5 374.75,-39.5 366.12,-39.5"/>
<polygon fill="black" stroke="black" points="366,-36 356,-39.5 366,-43 366,-36"/>
</g>
<!-- raw_data&#45;&gt;dataset (version_2) -->
<g id="edge5" class="edge">
<title>raw_data:f0&#45;&gt;dataset (version_2):f0</title>
<path fill="none" stroke="black" d="M366.12,-117.5C374.75,-117.5 380,-117.5 392,-117.5"/>
<polygon fill="black" stroke="black" points="366,-114 356,-117.5 366,-121 366,-114"/>
</g>
</g>
</svg>
