<?xml version="1.0" encoding="UTF-8" standalone="no"?>
<!DOCTYPE svg PUBLIC "-//W3C//DTD SVG 1.1//EN"
 "http://www.w3.org/Graphics/SVG/1.1/DTD/svg11.dtd">
<!-- Generated by graphviz version 2.42.3 (20191010.1750)
 -->
<!-- Title: g Pages: 1 -->
<svg width="296pt" height="129pt"
 viewBox="0.00 0.00 295.52 129.00" xmlns="http://www.w3.org/2000/svg" xmlns:xlink="http://www.w3.org/1999/xlink">
<g id="graph0" class="graph" transform="scale(1 1) rotate(0) translate(4 125)">
<title>g</title>
<polygon fill="white" stroke="transparent" points="-4,4 -4,-125 291.52,-125 291.52,4 -4,4"/>
<!-- dataset (version_1) -->
<g id="node1" class="node">
<title>dataset (version_1)</title>
<polygon fill="none" stroke="black" points="0,-0.5 0,-120.5 166.62,-120.5 166.62,-0.5 0,-0.5"/>
<text text-anchor="middle" x="83.31" y="-103.7" font-family="Times,serif" font-size="16.00">my_dataset (version_1)</text>
<polyline fill="none" stroke="black" points="0,-96.5 166.62,-96.5 "/>
<text text-anchor="middle" x="83.31" y="-79.7" font-family="Times,serif" font-size="16.00">CHUNK 0</text>
<polyline fill="none" stroke="black" points="0,-72.5 166.62,-72.5 "/>
<text text-anchor="middle" x="83.31" y="-55.7" font-family="Times,serif" font-size="16.00">CHUNK 1</text>
<polyline fill="none" stroke="black" points="0,-48.5 166.62,-48.5 "/>
<text text-anchor="middle" x="83.31" y="-31.7" font-family="Times,serif" font-size="16.00">...</text>
<polyline fill="none" stroke="black" points="0,-24.5 166.62,-24.5 "/>
<text text-anchor="middle" x="83.31" y="-7.7" font-family="Times,serif" font-size="16.00">CHUNK n</text>
</g>
<!-- raw_data -->
<g id="node2" class="node">
<title>raw_data</title>
<polygon fill="none" stroke="black" points="202.62,-0.5 202.62,-120.5 287.52,-120.5 287.52,-0.5 202.62,-0.5"/>
<text text-anchor="middle" x="245.07" y="-103.7" font-family="Times,serif" font-size="16.00">raw_data</text>
<polyline fill="none" stroke="black" points="202.62,-96.5 287.52,-96.5 "/>
<text text-anchor="middle" x="245.07" y="-79.7" font-family="Times,serif" font-size="16.00">CHUNK 0</text>
<polyline fill="none" stroke="black" points="202.62,-72.5 287.52,-72.5 "/>
<text text-anchor="middle" x="245.07" y="-55.7" font-family="Times,serif" font-size="16.00">CHUNK 1</text>
<polyline fill="none" stroke="black" points="202.62,-48.5 287.52,-48.5 "/>
<text text-anchor="middle" x="245.07" y="-31.7" font-family="Times,serif" font-size="16.00">...</text>
<polyline fill="none" stroke="black" points="202.62,-24.5 287.52,-24.5 "/>
<text text-anchor="middle" x="245.07" y="-7.7" font-family="Times,serif" font-size="16.00">CHUNK n</text>
</g>
<!-- dataset (version_1)&#45;&gt;raw_data -->
<g id="edge1" class="edge">
<title>dataset (version_1):f0&#45;&gt;raw_data:f0</title>
<path fill="none" stroke="black" d="M166.62,-84.5C178.62,-84.5 183.88,-84.5 192.5,-84.5"/>
<polygon fill="black" stroke="black" points="192.63,-88 202.62,-84.5 192.62,-81 192.63,-88"/>
</g>
<!-- dataset (version_1)&#45;&gt;raw_data -->
<g id="edge2" class="edge">
<title>dataset (version_1):f1&#45;&gt;raw_data:f1</title>
<path fill="none" stroke="black" d="M166.62,-60.5C178.62,-60.5 183.88,-60.5 192.5,-60.5"/>
<polygon fill="black" stroke="black" points="192.63,-64 202.62,-60.5 192.62,-57 192.63,-64"/>
</g>
<!-- dataset (version_1)&#45;&gt;raw_data -->
<g id="edge3" class="edge">
<title>dataset (version_1):fdot&#45;&gt;raw_data:fdot</title>
<path fill="none" stroke="black" d="M166.62,-36.5C178.62,-36.5 183.88,-36.5 192.5,-36.5"/>
<polygon fill="black" stroke="black" points="192.63,-40 202.62,-36.5 192.62,-33 192.63,-40"/>
</g>
<!-- dataset (version_1)&#45;&gt;raw_data -->
<g id="edge4" class="edge">
<title>dataset (version_1):fn&#45;&gt;raw_data:fn</title>
<path fill="none" stroke="black" d="M166.62,-12.5C178.62,-12.5 183.88,-12.5 192.5,-12.5"/>
<polygon fill="black" stroke="black" points="192.63,-16 202.62,-12.5 192.62,-9 192.63,-16"/>
</g>
</g>
</svg>
