<?xml version="1.0" encoding="UTF-8" standalone="no"?>
<!DOCTYPE svg PUBLIC "-//W3C//DTD SVG 1.1//EN"
 "http://www.w3.org/Graphics/SVG/1.1/DTD/svg11.dtd">
<!-- Generated by graphviz version 2.47.0 (20210327.0129)
 -->
<!-- Title: g Pages: 1 -->
<svg width="334pt" height="139pt"
 viewBox="0.00 0.00 334.00 139.00" xmlns="http://www.w3.org/2000/svg" xmlns:xlink="http://www.w3.org/1999/xlink">
<g id="graph0" class="graph" transform="scale(1 1) rotate(0) translate(4 135)">
<title>g</title>
<polygon fill="white" stroke="transparent" points="-4,4 -4,-135 330,-135 330,4 -4,4"/>
<!-- dataset (version_1) -->
<g id="node1" class="node">
<title>dataset (version_1)</title>
<polygon fill="none" stroke="black" points="0,-0.5 0,-130.5 201,-130.5 201,-0.5 0,-0.5"/>
<text text-anchor="middle" x="100.5" y="-113.7" font-family="Times-Roman" font-size="16.00">my_dataset (version_1)</text>
<polyline fill="none" stroke="black" points="0,-104.5 201,-104.5 "/>
<text text-anchor="middle" x="100.5" y="-87.7" font-family="Times-Roman" font-size="16.00">CHUNK 0</text>
<polyline fill="none" stroke="black" points="0,-78.5 201,-78.5 "/>
<text text-anchor="middle" x="100.5" y="-61.7" font-family="Times-Roman" font-size="16.00">CHUNK 1</text>
<polyline fill="none" stroke="black" points="0,-52.5 201,-52.5 "/>
<text text-anchor="middle" x="100.5" y="-35.7" font-family="Times-Roman" font-size="16.00">...</text>
<polyline fill="none" stroke="black" points="0,-26.5 201,-26.5 "/>
<text text-anchor="middle" x="100.5" y="-9.7" font-family="Times-Roman" font-size="16.00">CHUNK n</text>
</g>
<!-- raw_data -->
<g id="node2" class="node">
<title>raw_data</title>
<polygon fill="none" stroke="black" points="237,-0.5 237,-130.5 326,-130.5 326,-0.5 237,-0.5"/>
<text text-anchor="middle" x="281.5" y="-113.7" font-family="Times-Roman" font-size="16.00">raw_data</text>
<polyline fill="none" stroke="black" points="237,-104.5 326,-104.5 "/>
<text text-anchor="middle" x="281.5" y="-87.7" font-family="Times-Roman" font-size="16.00">CHUNK 0</text>
<polyline fill="none" stroke="black" points="237,-78.5 326,-78.5 "/>
<text text-anchor="middle" x="281.5" y="-61.7" font-family="Times-Roman" font-size="16.00">CHUNK 1</text>
<polyline fill="none" stroke="black" points="237,-52.5 326,-52.5 "/>
<text text-anchor="middle" x="281.5" y="-35.7" font-family="Times-Roman" font-size="16.00">...</text>
<polyline fill="none" stroke="black" points="237,-26.5 326,-26.5 "/>
<text text-anchor="middle" x="281.5" y="-9.7" font-family="Times-Roman" font-size="16.00">CHUNK n</text>
</g>
<!-- dataset (version_1)&#45;&gt;raw_data -->
<g id="edge1" class="edge">
<title>dataset (version_1):f0&#45;&gt;raw_data:f0</title>
<path fill="none" stroke="black" d="M201,-91.5C213,-91.5 218.25,-91.5 226.88,-91.5"/>
<polygon fill="black" stroke="black" points="227,-95 237,-91.5 227,-88 227,-95"/>
</g>
<!-- dataset (version_1)&#45;&gt;raw_data -->
<g id="edge2" class="edge">
<title>dataset (version_1):f1&#45;&gt;raw_data:f1</title>
<path fill="none" stroke="black" d="M201,-65.5C213,-65.5 218.25,-65.5 226.88,-65.5"/>
<polygon fill="black" stroke="black" points="227,-69 237,-65.5 227,-62 227,-69"/>
</g>
<!-- dataset (version_1)&#45;&gt;raw_data -->
<g id="edge3" class="edge">
<title>dataset (version_1):fdot&#45;&gt;raw_data:fdot</title>
<path fill="none" stroke="black" d="M201,-39.5C213,-39.5 218.25,-39.5 226.88,-39.5"/>
<polygon fill="black" stroke="black" points="227,-43 237,-39.5 227,-36 227,-43"/>
</g>
<!-- dataset (version_1)&#45;&gt;raw_data -->
<g id="edge4" class="edge">
<title>dataset (version_1):fn&#45;&gt;raw_data:fn</title>
<path fill="none" stroke="black" d="M201,-13.5C213,-13.5 218.25,-13.5 226.88,-13.5"/>
<polygon fill="black" stroke="black" points="227,-17 237,-13.5 227,-10 227,-17"/>
</g>
</g>
</svg>
