<?xml version="1.0" encoding="UTF-8" standalone="no"?>
<!DOCTYPE svg PUBLIC "-//W3C//DTD SVG 1.1//EN"
 "http://www.w3.org/Graphics/SVG/1.1/DTD/svg11.dtd">
<!-- Generated by graphviz version 2.47.0 (20210327.0129)
 -->
<!-- Title: g Pages: 1 -->
<svg width="594pt" height="165pt"
 viewBox="0.00 0.00 594.00 165.00" xmlns="http://www.w3.org/2000/svg" xmlns:xlink="http://www.w3.org/1999/xlink">
<g id="graph0" class="graph" transform="scale(1 1) rotate(0) translate(4 161)">
<title>g</title>
<polygon fill="white" stroke="transparent" points="-4,4 -4,-161 590,-161 590,4 -4,4"/>
<!-- dataset (version_1) -->
<g id="node1" class="node">
<title>dataset (version_1)</title>
<polygon fill="none" stroke="black" points="0,-26.5 0,-156.5 201,-156.5 201,-26.5 0,-26.5"/>
<text text-anchor="middle" x="100.5" y="-139.7" font-family="Times-Roman" font-size="16.00">my_dataset (version_1)</text>
<polyline fill="none" stroke="black" points="0,-130.5 201,-130.5 "/>
<text text-anchor="middle" x="100.5" y="-113.7" font-family="Times-Roman" font-size="16.00">CHUNK 0</text>
<polyline fill="none" stroke="black" points="0,-104.5 201,-104.5 "/>
<text text-anchor="middle" x="100.5" y="-87.7" font-family="Times-Roman" font-size="16.00">CHUNK 1</text>
<polyline fill="none" stroke="black" points="0,-78.5 201,-78.5 "/>
<text text-anchor="middle" x="100.5" y="-61.7" font-family="Times-Roman" font-size="16.00">...</text>
<polyline fill="none" stroke="black" points="0,-52.5 201,-52.5 "/>
<text text-anchor="middle" x="100.5" y="-35.7" font-family="Times-Roman" font-size="16.00">CHUNK n</text>
</g>
<!-- raw_data -->
<g id="node3" class="node">
<title>raw_data</title>
<polygon fill="none" stroke="black" points="237,-0.5 237,-156.5 349,-156.5 349,-0.5 237,-0.5"/>
<text text-anchor="middle" x="293" y="-139.7" font-family="Times-Roman" font-size="16.00">raw_data</text>
<polyline fill="none" stroke="black" points="237,-130.5 349,-130.5 "/>
<text text-anchor="middle" x="293" y="-113.7" font-family="Times-Roman" font-size="16.00">CHUNK 0</text>
<polyline fill="none" stroke="black" points="237,-104.5 349,-104.5 "/>
<text text-anchor="middle" x="293" y="-87.7" font-family="Times-Roman" font-size="16.00">CHUNK 1</text>
<polyline fill="none" stroke="black" points="237,-78.5 349,-78.5 "/>
<text text-anchor="middle" x="293" y="-61.7" font-family="Times-Roman" font-size="16.00">...</text>
<polyline fill="none" stroke="black" points="237,-52.5 349,-52.5 "/>
<text text-anchor="middle" x="293" y="-35.7" font-family="Times-Roman" font-size="16.00">CHUNK n</text>
<polyline fill="none" stroke="black" points="237,-26.5 349,-26.5 "/>
<text text-anchor="middle" x="293" y="-9.7" font-family="Times-Roman" font-size="16.00">CHUNK n+1</text>
</g>
<!-- dataset (version_1)&#45;&gt;raw_data -->
<g id="edge1" class="edge">
<title>dataset (version_1):f0&#45;&gt;raw_data:f0</title>
<path fill="none" stroke="black" d="M201,-117.5C213,-117.5 218.25,-117.5 226.88,-117.5"/>
<polygon fill="black" stroke="black" points="227,-121 237,-117.5 227,-114 227,-121"/>
</g>
<!-- dataset (version_1)&#45;&gt;raw_data -->
<g id="edge2" class="edge">
<title>dataset (version_1):f1&#45;&gt;raw_data:f1</title>
<path fill="none" stroke="black" d="M201,-91.5C213,-91.5 218.25,-91.5 226.88,-91.5"/>
<polygon fill="black" stroke="black" points="227,-95 237,-91.5 227,-88 227,-95"/>
</g>
<!-- dataset (version_1)&#45;&gt;raw_data -->
<g id="edge3" class="edge">
<title>dataset (version_1):fdot&#45;&gt;raw_data:fdot</title>
<path fill="none" stroke="black" d="M201,-65.5C213,-65.5 218.25,-65.5 226.88,-65.5"/>
<polygon fill="black" stroke="black" points="227,-69 237,-65.5 227,-62 227,-69"/>
</g>
<!-- dataset (version_1)&#45;&gt;raw_data -->
<g id="edge4" class="edge">
<title>dataset (version_1):fn&#45;&gt;raw_data:fn</title>
<path fill="none" stroke="black" d="M201,-39.5C213,-39.5 218.25,-39.5 226.88,-39.5"/>
<polygon fill="black" stroke="black" points="227,-43 237,-39.5 227,-36 227,-43"/>
</g>
<!-- dataset (version_2) -->
<g id="node2" class="node">
<title>dataset (version_2)</title>
<polygon fill="none" stroke="black" points="385,-26.5 385,-156.5 586,-156.5 586,-26.5 385,-26.5"/>
<text text-anchor="middle" x="485.5" y="-139.7" font-family="Times-Roman" font-size="16.00">my_dataset (version_2)</text>
<polyline fill="none" stroke="black" points="385,-130.5 586,-130.5 "/>
<text text-anchor="middle" x="485.5" y="-113.7" font-family="Times-Roman" font-size="16.00">CHUNK 0</text>
<polyline fill="none" stroke="black" points="385,-104.5 586,-104.5 "/>
<text text-anchor="middle" x="485.5" y="-87.7" font-family="Times-Roman" font-size="16.00">CHUNK 1</text>
<polyline fill="none" stroke="black" points="385,-78.5 586,-78.5 "/>
<text text-anchor="middle" x="485.5" y="-61.7" font-family="Times-Roman" font-size="16.00">...</text>
<polyline fill="none" stroke="black" points="385,-52.5 586,-52.5 "/>
<text text-anchor="middle" x="485.5" y="-35.7" font-family="Times-Roman" font-size="16.00">CHUNK n</text>
</g>
<!-- dataset (version_2)&#45;&gt;raw_data -->
<g id="edge6" class="edge">
<title>dataset (version_2):fdot&#45;&gt;raw_data:fdot</title>
<path fill="none" stroke="black" d="M385,-65.5C373,-65.5 367.75,-65.5 359.12,-65.5"/>
<polygon fill="black" stroke="black" points="359,-62 349,-65.5 359,-69 359,-62"/>
</g>
<!-- dataset (version_2)&#45;&gt;raw_data -->
<g id="edge7" class="edge">
<title>dataset (version_2):f1&#45;&gt;raw_data:fn1</title>
<path fill="none" stroke="black" d="M385,-91.5C351,-91.5 379.29,-29.63 358.91,-16.1"/>
<polygon fill="black" stroke="black" points="359.56,-12.65 349,-13.5 357.79,-19.42 359.56,-12.65"/>
</g>
<!-- dataset (version_2)&#45;&gt;raw_data -->
<g id="edge8" class="edge">
<title>dataset (version_2):fn&#45;&gt;raw_data:fn</title>
<path fill="none" stroke="black" d="M385,-39.5C373,-39.5 367.75,-39.5 359.12,-39.5"/>
<polygon fill="black" stroke="black" points="359,-36 349,-39.5 359,-43 359,-36"/>
</g>
<!-- raw_data&#45;&gt;dataset (version_2) -->
<g id="edge5" class="edge">
<title>raw_data:f0&#45;&gt;dataset (version_2):f0</title>
<path fill="none" stroke="black" d="M359.12,-117.5C367.75,-117.5 373,-117.5 385,-117.5"/>
<polygon fill="black" stroke="black" points="359,-114 349,-117.5 359,-121 359,-114"/>
</g>
</g>
</svg>
