<?xml version="1.0" encoding="UTF-8" standalone="no"?>
<!DOCTYPE svg PUBLIC "-//W3C//DTD SVG 1.1//EN"
 "http://www.w3.org/Graphics/SVG/1.1/DTD/svg11.dtd">
<!-- Generated by graphviz version 2.47.1 (20210511.0111)
 -->
<!-- Title: g Pages: 1 -->
<svg width="340pt" height="139pt"
 viewBox="0.00 0.00 340.00 139.00" xmlns="http://www.w3.org/2000/svg" xmlns:xlink="http://www.w3.org/1999/xlink">
<g id="graph0" class="graph" transform="scale(1 1) rotate(0) translate(4 135)">
<title>g</title>
<polygon fill="white" stroke="transparent" points="-4,4 -4,-135 336,-135 336,4 -4,4"/>
<!-- dataset (version_1) -->
<g id="node1" class="node">
<title>dataset (version_1)</title>
<polygon fill="none" stroke="black" points="0,-0.5 0,-130.5 206,-130.5 206,-0.5 0,-0.5"/>
<text text-anchor="middle" x="103" y="-113.7" font-family="Times-Roman" font-size="16.00">my_dataset (version_1)</text>
<polyline fill="none" stroke="black" points="0,-104.5 206,-104.5 "/>
<text text-anchor="middle" x="103" y="-87.7" font-family="Times-Roman" font-size="16.00">CHUNK 0</text>
<polyline fill="none" stroke="black" points="0,-78.5 206,-78.5 "/>
<text text-anchor="middle" x="103" y="-61.7" font-family="Times-Roman" font-size="16.00">CHUNK 1</text>
<polyline fill="none" stroke="black" points="0,-52.5 206,-52.5 "/>
<text text-anchor="middle" x="103" y="-35.7" font-family="Times-Roman" font-size="16.00">...</text>
<polyline fill="none" stroke="black" points="0,-26.5 206,-26.5 "/>
<text text-anchor="middle" x="103" y="-9.7" font-family="Times-Roman" font-size="16.00">CHUNK n</text>
</g>
<!-- raw_data -->
<g id="node2" class="node">
<title>raw_data</title>
<polygon fill="none" stroke="black" points="242,-0.5 242,-130.5 332,-130.5 332,-0.5 242,-0.5"/>
<text text-anchor="middle" x="287" y="-113.7" font-family="Times-Roman" font-size="16.00">raw_data</text>
<polyline fill="none" stroke="black" points="242,-104.5 332,-104.5 "/>
<text text-anchor="middle" x="287" y="-87.7" font-family="Times-Roman" font-size="16.00">CHUNK 0</text>
<polyline fill="none" stroke="black" points="242,-78.5 332,-78.5 "/>
<text text-anchor="middle" x="287" y="-61.7" font-family="Times-Roman" font-size="16.00">CHUNK 1</text>
<polyline fill="none" stroke="black" points="242,-52.5 332,-52.5 "/>
<text text-anchor="middle" x="287" y="-35.7" font-family="Times-Roman" font-size="16.00">...</text>
<polyline fill="none" stroke="black" points="242,-26.5 332,-26.5 "/>
<text text-anchor="middle" x="287" y="-9.7" font-family="Times-Roman" font-size="16.00">CHUNK n</text>
</g>
<!-- dataset (version_1)&#45;&gt;raw_data -->
<g id="edge1" class="edge">
<title>dataset (version_1):f0&#45;&gt;raw_data:f0</title>
<path fill="none" stroke="black" d="M206,-91.5C218,-91.5 223.25,-91.5 231.88,-91.5"/>
<polygon fill="black" stroke="black" points="232,-95 242,-91.5 232,-88 232,-95"/>
</g>
<!-- dataset (version_1)&#45;&gt;raw_data -->
<g id="edge2" class="edge">
<title>dataset (version_1):f1&#45;&gt;raw_data:f1</title>
<path fill="none" stroke="black" d="M206,-65.5C218,-65.5 223.25,-65.5 231.88,-65.5"/>
<polygon fill="black" stroke="black" points="232,-69 242,-65.5 232,-62 232,-69"/>
</g>
<!-- dataset (version_1)&#45;&gt;raw_data -->
<g id="edge3" class="edge">
<title>dataset (version_1):fdot&#45;&gt;raw_data:fdot</title>
<path fill="none" stroke="black" d="M206,-39.5C218,-39.5 223.25,-39.5 231.88,-39.5"/>
<polygon fill="black" stroke="black" points="232,-43 242,-39.5 232,-36 232,-43"/>
</g>
<!-- dataset (version_1)&#45;&gt;raw_data -->
<g id="edge4" class="edge">
<title>dataset (version_1):fn&#45;&gt;raw_data:fn</title>
<path fill="none" stroke="black" d="M206,-13.5C218,-13.5 223.25,-13.5 231.88,-13.5"/>
<polygon fill="black" stroke="black" points="232,-17 242,-13.5 232,-10 232,-17"/>
</g>
</g>
</svg>
